<svg width="186" height="216" viewBox="0 0 186 216" fill="none" xmlns="http://www.w3.org/2000/svg">
<g id="Group">
<path id="Vector" d="M36 53.6001C36 83.0667 36.4 106.667 36.8 106.267C37.3333 105.867 37.7333 82.9334 37.8667 55.3334C38 12.4 38.2667 5.06671 40 3.86671C41.7333 2.80004 91.7333 2.93338 126.267 4.26671C131.467 4.53338 135.6 4.40004 135.333 4.13338C135.067 3.86671 131.333 2.80004 127.067 1.86671C121.467 0.533377 108.133 4.32856e-05 77.7333 4.32856e-05H36V53.6001Z" fill="black"/>
<path id="Vector_2" d="M118.667 59.8666C118.667 87.8666 119.2 106.8 119.867 107.333C123.334 109.333 124 101.333 124 61.4666C124 37.8666 123.467 18.6666 122.667 16.7999C119.334 7.73328 118.667 14.4 118.667 59.8666Z" fill="black"/>
<path id="Vector_3" d="M170 19.7333C173.866 25.2 178.266 38.9333 179.066 47.8667C180.133 58 177.466 73.3333 173.2 82.2667C168.266 92.5333 157.066 104.933 148.4 109.6C144.933 111.467 137.6 114.4 132.266 116C126.933 117.6 121.733 119.867 120.666 120.933C119.2 122.4 118.666 126.4 118.666 137.067V151.333L99.0664 170.933C80.2664 189.733 79.5997 190.667 81.0664 194C82.3997 196.8 83.0664 197.2 85.0664 196.133C88.1331 194.533 120.8 160.667 122.666 157.333C123.333 156 124 148.933 124 141.6C124 125.867 123.733 126.267 140 120.933C154.266 116.133 164.266 109.467 172.266 99.0667C180.133 88.5333 184 78.2667 184.933 64.5333C186.133 47.3333 182.133 32.1333 172.933 19.7333C168.8 14.1333 166.133 14 170 19.7333Z" fill="black"/>
<path id="Vector_4" d="M36 146.933V173.733L18 192C5.86667 204.267 0 211.067 0 213.067C0 214.667 0.8 216 1.73333 216C2.66667 216 11.2 208.133 20.6667 198.667L38 181.333L38.2667 154.533C38.4 139.867 38.8 126.933 39.2 125.867C39.7333 124.4 43.6 124 59.3333 124C75.6 124 78.6667 123.733 78.6667 122C78.6667 120.267 75.4667 120 57.3333 120H36V146.933Z" fill="black"/>
</g>
</svg>
