<svg width="15" height="8" viewBox="0 0 16 11" fill="none" xmlns="http://www.w3.org/2000/svg">
<path id="Vector" d="M6.96198 10.4986L0.344074 2.43792C-0.436938 1.48951 0.197807 5.40673e-07 1.38312 5.40673e-07H14.6189C14.8842 -0.00024182 15.1439 0.0810009 15.367 0.234C15.59 0.386999 15.767 0.605269 15.8766 0.862671C15.9863 1.12007 16.024 1.4057 15.9852 1.68533C15.9464 1.96497 15.8328 2.22677 15.658 2.43939L9.04008 10.4972C8.91056 10.6551 8.75084 10.7817 8.57162 10.8684C8.39241 10.9551 8.19786 11 8.00103 11C7.8042 11 7.60965 10.9551 7.43044 10.8684C7.25122 10.7817 7.0915 10.6551 6.96198 10.4972V10.4986Z" fill="white"/>
</svg>
