<svg width="23" height="23" viewBox="0 0 23 23" fill="none" xmlns="http://www.w3.org/2000/svg">
<path id="Vector" d="M11.5 22.75C9.94375 22.75 8.48125 22.4547 7.1125 21.8641C5.74375 21.2734 4.55312 20.4719 3.54062 19.4594C2.52813 18.4469 1.72656 17.2563 1.13594 15.8875C0.545312 14.5187 0.25 13.0562 0.25 11.5C0.25 9.94375 0.545312 8.48125 1.13594 7.1125C1.72656 5.74375 2.52813 4.55312 3.54062 3.54062C4.55312 2.52813 5.74375 1.72656 7.1125 1.13594C8.48125 0.545312 9.94375 0.25 11.5 0.25C13.0562 0.25 14.5187 0.545312 15.8875 1.13594C17.2563 1.72656 18.4469 2.52813 19.4594 3.54062C20.4719 4.55312 21.2734 5.74375 21.8641 7.1125C22.4547 8.48125 22.75 9.94375 22.75 11.5V13.1312C22.75 14.2375 22.3703 15.1797 21.6109 15.9578C20.8516 16.7359 19.9187 17.125 18.8125 17.125C18.1562 17.125 17.5375 16.9844 16.9562 16.7031C16.375 16.4219 15.8875 16.0187 15.4937 15.4937C14.95 16.0375 14.3359 16.4453 13.6516 16.7172C12.9672 16.9891 12.25 17.125 11.5 17.125C9.94375 17.125 8.61719 16.5766 7.52031 15.4797C6.42344 14.3828 5.875 13.0562 5.875 11.5C5.875 9.94375 6.42344 8.61719 7.52031 7.52031C8.61719 6.42344 9.94375 5.875 11.5 5.875C13.0562 5.875 14.3828 6.42344 15.4797 7.52031C16.5766 8.61719 17.125 9.94375 17.125 11.5V13.1312C17.125 13.6187 17.2844 14.0312 17.6031 14.3687C17.9219 14.7062 18.325 14.875 18.8125 14.875C19.3 14.875 19.7031 14.7062 20.0219 14.3687C20.3406 14.0312 20.5 13.6187 20.5 13.1312V11.5C20.5 8.9875 19.6281 6.85938 17.8844 5.11562C16.1406 3.37187 14.0125 2.5 11.5 2.5C8.9875 2.5 6.85938 3.37187 5.11562 5.11562C3.37187 6.85938 2.5 8.9875 2.5 11.5C2.5 14.0125 3.37187 16.1406 5.11562 17.8844C6.85938 19.6281 8.9875 20.5 11.5 20.5H17.125V22.75H11.5ZM11.5 14.875C12.4375 14.875 13.2344 14.5469 13.8906 13.8906C14.5469 13.2344 14.875 12.4375 14.875 11.5C14.875 10.5625 14.5469 9.76562 13.8906 9.10938C13.2344 8.45312 12.4375 8.125 11.5 8.125C10.5625 8.125 9.76562 8.45312 9.10938 9.10938C8.45312 9.76562 8.125 10.5625 8.125 11.5C8.125 12.4375 8.45312 13.2344 9.10938 13.8906C9.76562 14.5469 10.5625 14.875 11.5 14.875Z" fill="#4F4F4F"/>
</svg>
