<svg width="60" height="60" viewBox="0 0 62 74" fill="none" xmlns="http://www.w3.org/2000/svg">
<path id="Vector" d="M12.5244 43.9512H37.0322V36.626H12.5244V43.9512ZM12.5244 32.9634H49.2861V25.6382H12.5244V32.9634ZM12.5244 21.9756H49.2861V14.6504H12.5244V21.9756ZM0.270508 73.252V7.3252C0.270508 5.31077 0.870438 3.58629 2.0703 2.15178C3.27016 0.717259 4.71254 0 6.39745 0H55.413C57.0979 0 58.5403 0.717259 59.7402 2.15178C60.94 3.58629 61.54 5.31077 61.54 7.3252V51.2764C61.54 53.2908 60.94 55.0153 59.7402 56.4498C58.5403 57.8843 57.0979 58.6016 55.413 58.6016H12.5244L0.270508 73.252ZM9.92045 51.2764H55.413V7.3252H6.39745V55.3968L9.92045 51.2764Z" fill="white"/>
</svg>
