<?xml version="1.0" standalone="no"?>
<!DOCTYPE svg PUBLIC "-//W3C//DTD SVG 20010904//EN"
 "http://www.w3.org/TR/2001/REC-SVG-20010904/DTD/svg10.dtd">
<svg version="1.0" xmlns="http://www.w3.org/2000/svg"
 width="4096.000000pt" height="4096.000000pt" viewBox="0 0 4096.000000 4096.000000"
 preserveAspectRatio="xMidYMid meet">

<g transform="translate(0.000000,4096.000000) scale(0.100000,-0.100000)"
fill="#000000" stroke="none">
<path d="M18743 30286 c-28 -13 -32 -20 -37 -68 -3 -29 -5 -1485 -3 -3235 1
-2484 5 -3185 14 -3194 10 -10 14 -8 18 7 4 10 23 52 43 92 l37 73 0 182 c0
383 -17 899 -36 1132 -8 87 -9 202 -3 350 16 415 11 1194 -14 1865 -9 260 -9
420 1 640 4 96 10 229 12 295 3 66 8 145 11 175 17 190 22 302 23 515 3 361
26 822 44 865 39 89 129 132 314 150 131 13 818 17 1273 8 195 -5 846 -10
1445 -13 1083 -5 1167 -7 1487 -26 155 -9 267 -28 292 -49 6 -4 40 -25 75 -44
84 -48 129 -58 189 -41 26 8 119 34 207 60 172 49 252 57 355 37 30 -6 78 -13
105 -14 46 -3 50 -1 53 21 2 13 -1 28 -6 33 -28 28 -470 130 -667 154 -77 9
-176 21 -220 26 -51 7 -977 12 -2530 14 -2073 3 -2455 1 -2482 -10z"/>
<path d="M24670 30039 c-41 -10 -2 -21 66 -17 l59 3 -50 10 c-28 6 -62 8 -75
4z"/>
<path d="M23776 29491 c-15 -17 -16 -35 -11 -167 3 -82 9 -1371 13 -2865 6
-2280 9 -2719 21 -2732 23 -28 91 -22 138 12 32 23 45 42 58 83 9 29 28 69 41
88 13 21 28 64 34 104 14 86 13 367 -1 761 -6 170 -12 1177 -14 2320 -2 1279
-7 2038 -13 2070 -13 66 -39 160 -57 210 -16 44 -89 107 -137 119 -14 3 -32 8
-40 11 -8 3 -22 -3 -32 -14z"/>
<path d="M26817 29333 c-14 -14 -6 -64 13 -83 11 -11 34 -46 51 -77 18 -32 40
-67 50 -78 10 -11 29 -45 42 -76 14 -30 32 -60 40 -67 8 -7 25 -38 38 -70 13
-31 31 -70 41 -87 9 -16 28 -59 42 -96 13 -36 33 -81 44 -100 11 -18 29 -63
40 -99 11 -36 30 -87 42 -115 12 -27 35 -97 50 -155 16 -58 38 -135 48 -171
11 -37 27 -106 36 -155 8 -49 26 -141 39 -204 14 -63 27 -135 31 -160 9 -62
29 -445 30 -555 0 -125 -22 -537 -34 -610 -19 -129 -82 -416 -116 -530 -61
-209 -141 -436 -167 -475 -9 -14 -23 -46 -32 -70 -21 -61 -124 -268 -136 -276
-6 -3 -26 -39 -45 -80 -20 -41 -39 -74 -44 -74 -4 0 -14 -14 -21 -32 -7 -17
-27 -51 -45 -74 -18 -23 -40 -57 -49 -76 -10 -18 -28 -44 -41 -58 -12 -14 -33
-39 -46 -57 -45 -61 -112 -148 -138 -176 -14 -16 -44 -50 -67 -75 -23 -26 -58
-65 -78 -87 -55 -61 -160 -166 -206 -205 -23 -19 -60 -51 -83 -71 -112 -100
-208 -176 -272 -215 -19 -11 -44 -30 -56 -41 -13 -11 -50 -35 -83 -52 -33 -18
-94 -52 -135 -76 -92 -55 -261 -138 -315 -155 -22 -7 -62 -23 -90 -36 -113
-52 -275 -113 -360 -134 -49 -12 -101 -28 -115 -35 -14 -7 -126 -43 -250 -80
-342 -103 -496 -154 -523 -175 -14 -11 -36 -24 -50 -29 -15 -6 -38 -27 -52
-48 -13 -21 -33 -49 -42 -62 -17 -23 -18 -86 -23 -916 -5 -853 -6 -892 -24
-920 -21 -32 -2140 -2155 -2152 -2155 -9 0 -70 -52 -156 -133 l-71 -68 12 -64
c6 -35 32 -108 57 -162 39 -85 52 -104 95 -136 47 -35 53 -37 89 -27 21 6 43
17 51 26 7 8 24 21 39 29 28 14 67 47 135 110 193 180 308 290 367 350 37 39
72 74 77 78 21 19 60 61 141 147 47 50 247 255 445 456 198 200 396 403 440
450 107 115 330 345 351 364 10 8 27 26 38 39 12 12 30 30 40 40 11 9 29 27
40 40 12 13 39 42 61 66 110 115 176 243 194 371 15 102 33 549 27 656 -3 51
-8 242 -12 423 -5 282 -4 344 10 424 27 153 106 257 253 333 87 45 136 61 238
78 38 6 74 15 80 20 6 5 62 23 124 40 63 18 133 40 155 50 46 21 176 64 345
116 63 19 120 39 127 44 6 6 43 21 82 34 39 14 90 35 114 49 24 14 74 35 111
47 38 12 71 28 73 35 3 7 31 25 61 40 31 14 70 36 87 49 17 13 45 28 63 34 18
6 56 28 85 50 29 22 64 43 78 47 14 5 36 19 50 33 14 13 39 34 56 46 130 88
258 193 346 284 23 23 47 42 54 42 7 0 21 16 33 35 11 19 31 40 45 46 13 6 29
22 35 36 6 13 24 32 41 41 16 9 30 21 30 26 0 4 19 28 43 53 23 25 61 65 85
89 23 25 42 50 42 57 0 11 31 50 128 167 16 19 39 54 51 77 11 23 25 45 31 48
6 4 22 30 36 58 15 29 36 63 48 77 13 14 31 47 41 74 9 26 30 62 44 80 15 17
33 49 39 72 7 23 24 58 38 80 14 21 33 63 40 93 8 30 26 70 41 89 14 19 36 71
48 117 13 46 32 96 43 112 11 15 30 72 41 127 12 54 30 110 40 125 23 33 39
119 47 251 4 67 15 130 29 175 45 136 50 210 50 695 0 485 -8 608 -46 682 -15
28 -23 74 -30 161 -13 168 -24 228 -49 278 -12 23 -30 92 -40 156 -13 79 -25
121 -39 139 -12 15 -30 57 -41 95 -11 37 -32 82 -46 98 -13 16 -33 55 -44 86
-11 31 -30 69 -44 85 -13 16 -30 46 -37 67 -6 21 -25 53 -40 71 -16 17 -35 56
-44 86 -9 29 -26 63 -39 76 -14 12 -33 43 -45 69 -11 26 -29 56 -41 66 -12 11
-29 33 -37 50 -8 16 -26 41 -38 55 -13 14 -34 46 -47 71 -13 25 -37 58 -55 73
-18 15 -34 35 -37 44 -3 10 -20 26 -37 36 -16 10 -35 28 -41 41 -6 13 -24 29
-41 35 -17 5 -38 17 -47 25 -9 8 -20 12 -23 8z"/>
<path d="M18730 22943 c-8 -3 -23 -12 -33 -21 -16 -14 -17 -101 -17 -1596 0
-947 -4 -1593 -9 -1611 -23 -75 -79 -188 -111 -225 -46 -54 -1381 -1386 -1427
-1425 -20 -16 -159 -149 -308 -295 -149 -146 -297 -287 -328 -315 -54 -47 -58
-53 -58 -95 -2 -118 36 -304 68 -332 20 -17 93 -34 93 -21 0 5 21 22 48 40 26
17 151 131 277 254 340 330 1362 1354 1502 1504 66 72 145 156 174 187 30 32
69 75 87 97 35 43 86 162 103 238 14 66 21 1551 9 1918 -7 188 -7 387 0 565 5
151 12 369 15 484 7 263 17 291 125 354 44 27 47 27 190 22 80 -2 251 -4 380
-4 1544 3 1727 7 1754 34 6 6 13 55 14 108 6 155 173 137 -1287 139 -685 1
-1253 -1 -1261 -4z"/>
</g>
</svg>
