<svg width="11" height="16" viewBox="0 0 11 16" fill="none" xmlns="http://www.w3.org/2000/svg">
<path id="Vector" d="M10.4986 9.03802L2.43792 15.6559C1.48804 16.4369 5.40673e-07 15.8022 5.40673e-07 14.6169V1.38106C-0.00024182 1.11579 0.0810009 0.856073 0.234 0.633015C0.386999 0.409956 0.605269 0.233013 0.862671 0.123373C1.12007 0.0137337 1.4057 -0.0239541 1.68533 0.014823C1.96497 0.0536002 2.22677 0.167198 2.43939 0.342014L10.4972 6.95992C10.6551 7.08944 10.7817 7.24916 10.8684 7.42838C10.9551 7.60759 11 7.80214 11 7.99897C11 8.1958 10.9551 8.39035 10.8684 8.56956C10.7817 8.74878 10.6551 8.9085 10.4972 9.03802H10.4986Z" fill="white"/>
</svg>
