<svg width="84" height="88" viewBox="0 0 84 88" fill="none" xmlns="http://www.w3.org/2000/svg">
<g id="book">
<path id="Vector" d="M48.5569 36.3001V30.0667C50.4578 29.2112 52.402 28.5695 54.3893 28.1417C56.3766 27.714 58.4648 27.5001 60.6537 27.5001C62.1514 27.5001 63.6203 27.6223 65.0604 27.8667C66.5005 28.1112 67.9118 28.4167 69.2943 28.7834V34.6501C67.9118 34.1001 66.5149 33.6876 65.1036 33.4126C63.6923 33.1376 62.209 33.0001 60.6537 33.0001C58.4648 33.0001 56.3622 33.2904 54.3461 33.8709C52.33 34.4515 50.4002 35.2612 48.5569 36.3001ZM48.5569 56.4667V50.2334C50.4578 49.3779 52.402 48.7362 54.3893 48.3084C56.3766 47.8806 58.4648 47.6667 60.6537 47.6667C62.1514 47.6667 63.6203 47.789 65.0604 48.0334C66.5005 48.2779 67.9118 48.5834 69.2943 48.9501V54.8167C67.9118 54.2667 66.5149 53.8542 65.1036 53.5792C63.6923 53.3042 62.209 53.1667 60.6537 53.1667C58.4648 53.1667 56.3622 53.4417 54.3461 53.9917C52.33 54.5417 50.4002 55.3667 48.5569 56.4667ZM48.5569 46.3834V40.1501C50.4578 39.2945 52.402 38.6529 54.3893 38.2251C56.3766 37.7973 58.4648 37.5834 60.6537 37.5834C62.1514 37.5834 63.6203 37.7056 65.0604 37.9501C66.5005 38.1945 67.9118 38.5001 69.2943 38.8667V44.7334C67.9118 44.1834 66.5149 43.7709 65.1036 43.4959C63.6923 43.2209 62.209 43.0834 60.6537 43.0834C58.4648 43.0834 56.3622 43.3737 54.3461 43.9542C52.33 44.5348 50.4002 45.3445 48.5569 46.3834ZM22.6352 58.6667C25.3426 58.6667 27.978 58.9876 30.5413 59.6292C33.1047 60.2709 35.6537 61.2334 38.1882 62.5167V26.4001C35.8265 24.9334 33.3207 23.8334 30.6709 23.1001C28.0212 22.3667 25.3426 22.0001 22.6352 22.0001C20.5615 22.0001 18.5021 22.214 16.4572 22.6417C14.4123 23.0695 12.4394 23.7112 10.5384 24.5667V60.8667C12.5546 60.1334 14.5563 59.5834 16.5436 59.2167C18.531 58.8501 20.5615 58.6667 22.6352 58.6667ZM45.1007 62.5167C47.6353 61.2334 50.1842 60.2709 52.7476 59.6292C55.311 58.9876 57.9463 58.6667 60.6537 58.6667C62.7274 58.6667 64.758 58.8501 66.7453 59.2167C68.7326 59.5834 70.7344 60.1334 72.7505 60.8667V24.5667C70.8496 23.7112 68.8766 23.0695 66.8317 22.6417C64.7868 22.214 62.7274 22.0001 60.6537 22.0001C57.9463 22.0001 55.2678 22.3667 52.618 23.1001C49.9682 23.8334 47.4624 24.9334 45.1007 26.4001V62.5167ZM41.6445 73.3334C38.8795 71.0112 35.8841 69.2084 32.6583 67.9251C29.4325 66.6417 26.0914 66.0001 22.6352 66.0001C20.2159 66.0001 17.8397 66.3362 15.5068 67.0084C13.1738 67.6806 10.9417 68.6279 8.81032 69.8501C7.60064 70.5223 6.43416 70.4917 5.31089 69.7584C4.18761 69.0251 3.62598 67.9556 3.62598 66.5501V22.3667C3.62598 21.6945 3.78439 21.0529 4.10121 20.4417C4.41803 19.8306 4.89326 19.3723 5.5269 19.0667C8.17667 17.6001 10.9417 16.5001 13.8218 15.7667C16.702 15.0334 19.6398 14.6667 22.6352 14.6667C25.9762 14.6667 29.2453 15.1251 32.4423 16.0417C35.6393 16.9584 38.7067 18.3334 41.6445 20.1667C44.5823 18.3334 47.6497 16.9584 50.8467 16.0417C54.0437 15.1251 57.3127 14.6667 60.6537 14.6667C63.6491 14.6667 66.5869 15.0334 69.4671 15.7667C72.3473 16.5001 75.1123 17.6001 77.762 19.0667C78.3957 19.3723 78.8709 19.8306 79.1877 20.4417C79.5045 21.0529 79.6629 21.6945 79.6629 22.3667V66.5501C79.6629 67.9556 79.1013 69.0251 77.978 69.7584C76.8548 70.4917 75.6883 70.5223 74.4786 69.8501C72.3473 68.6279 70.1151 67.6806 67.7822 67.0084C65.4492 66.3362 63.0731 66.0001 60.6537 66.0001C57.1975 66.0001 53.8565 66.6417 50.6307 67.9251C47.4048 69.2084 44.4094 71.0112 41.6445 73.3334Z" fill="white"/>
</g>
</svg>
