<svg width="23" height="24" viewBox="0 0 23 24" fill="none" xmlns="http://www.w3.org/2000/svg">
<path id="Vector" d="M1.91667 24C1.91667 24 0 24 0 22C0 20 1.91667 14 11.5 14C21.0833 14 23 20 23 22C23 24 21.0833 24 21.0833 24H1.91667ZM11.5 12C13.025 12 14.4875 11.3679 15.5659 10.2426C16.6442 9.11742 17.25 7.5913 17.25 6C17.25 4.4087 16.6442 2.88258 15.5659 1.75736C14.4875 0.632141 13.025 0 11.5 0C9.97501 0 8.51247 0.632141 7.43414 1.75736C6.3558 2.88258 5.75 4.4087 5.75 6C5.75 7.5913 6.3558 9.11742 7.43414 10.2426C8.51247 11.3679 9.97501 12 11.5 12Z" fill="#4F4F4F"/>
</svg>
