<svg width="26" height="12" viewBox="0 0 26 12" fill="none" xmlns="http://www.w3.org/2000/svg">
<path id="Vector" d="M5.87003 12C4.81938 11.9998 3.78803 11.7114 2.88357 11.1651C1.97912 10.6187 1.23471 9.83433 0.727981 8.89377C0.221256 7.9532 -0.0292102 6.89091 0.00271103 5.81771C0.0346322 4.74451 0.347771 3.69972 0.909461 2.79234C1.47115 1.88496 2.26081 1.14824 3.19607 0.659019C4.13132 0.169799 5.1779 -0.0539877 6.22663 0.0110035C7.27536 0.0759947 8.28781 0.427382 9.15836 1.02851C10.0289 1.62964 10.7257 2.45848 11.176 3.42857H23.4838L26 6L23.4838 8.57143L21.8063 6.85714L20.1288 8.57143L18.4513 6.85714L16.7738 8.57143L15.0963 6.85714L13.4188 8.57143H11.176C10.6997 9.59748 9.94829 10.4643 9.00904 11.0713C8.06979 11.6782 6.98129 12.0002 5.87003 12ZM4.19253 7.71429C4.63743 7.71429 5.06411 7.53367 5.3787 7.21218C5.69329 6.89069 5.87003 6.45466 5.87003 6C5.87003 5.54534 5.69329 5.10931 5.3787 4.78782C5.06411 4.46633 4.63743 4.28572 4.19253 4.28572C3.74763 4.28572 3.32095 4.46633 3.00636 4.78782C2.69177 5.10931 2.51503 5.54534 2.51503 6C2.51503 6.45466 2.69177 6.89069 3.00636 7.21218C3.32095 7.53367 3.74763 7.71429 4.19253 7.71429Z" fill="#4F4F4F"/>
</svg>
