<svg width="72" height="75" viewBox="0 0 72 75" fill="none" xmlns="http://www.w3.org/2000/svg">
<g id="Vector">
<path id="Vector_2" d="M0.90625 2.5C0.90625 1.83696 1.15453 1.20107 1.59648 0.732233C2.03843 0.263392 2.63783 0 3.26284 0H10.3326C10.8583 0.000154057 11.3688 0.186753 11.783 0.530124C12.1972 0.873494 12.4913 1.35392 12.6185 1.895L14.5273 10H69.2474C69.5934 10.0003 69.9351 10.0815 70.2482 10.2378C70.5613 10.394 70.8382 10.6215 71.0591 10.904C71.28 11.1866 71.4395 11.5173 71.5264 11.8726C71.6132 12.2279 71.6252 12.5992 71.5615 12.96L64.4918 52.96C64.3907 53.5329 64.1041 54.0503 63.6815 54.4228C63.259 54.7953 62.727 54.9995 62.1776 55H19.759C19.2096 54.9995 18.6776 54.7953 18.255 54.4228C17.8325 54.0503 17.5459 53.5329 17.4448 52.96L10.3797 13.035L8.49447 5H3.26284C2.63783 5 2.03843 4.73661 1.59648 4.26777C1.15453 3.79893 0.90625 3.16304 0.90625 2.5ZM24.4722 55C21.9721 55 19.5745 56.0536 17.8067 57.9289C16.0389 59.8043 15.0458 62.3478 15.0458 65C15.0458 67.6522 16.0389 70.1957 17.8067 72.0711C19.5745 73.9464 21.9721 75 24.4722 75C26.9722 75 29.3698 73.9464 31.1376 72.0711C32.9054 70.1957 33.8985 67.6522 33.8985 65C33.8985 62.3478 32.9054 59.8043 31.1376 57.9289C29.3698 56.0536 26.9722 55 24.4722 55ZM57.4644 55C54.9644 55 52.5668 56.0536 50.799 57.9289C49.0312 59.8043 48.0381 62.3478 48.0381 65C48.0381 67.6522 49.0312 70.1957 50.799 72.0711C52.5668 73.9464 54.9644 75 57.4644 75C59.9644 75 62.3621 73.9464 64.1299 72.0711C65.8976 70.1957 66.8908 67.6522 66.8908 65C66.8908 62.3478 65.8976 59.8043 64.1299 57.9289C62.3621 56.0536 59.9644 55 57.4644 55ZM24.4722 60C25.7222 60 26.921 60.5268 27.8049 61.4645C28.6888 62.4021 29.1853 63.6739 29.1853 65C29.1853 66.3261 28.6888 67.5978 27.8049 68.5355C26.921 69.4732 25.7222 70 24.4722 70C23.2221 70 22.0233 69.4732 21.1394 68.5355C20.2555 67.5978 19.759 66.3261 19.759 65C19.759 63.6739 20.2555 62.4021 21.1394 61.4645C22.0233 60.5268 23.2221 60 24.4722 60ZM57.4644 60C58.7144 60 59.9132 60.5268 60.7971 61.4645C61.681 62.4021 62.1776 63.6739 62.1776 65C62.1776 66.3261 61.681 67.5978 60.7971 68.5355C59.9132 69.4732 58.7144 70 57.4644 70C56.2144 70 55.0156 69.4732 54.1317 68.5355C53.2478 67.5978 52.7512 66.3261 52.7512 65C52.7512 63.6739 53.2478 62.4021 54.1317 61.4645C55.0156 60.5268 56.2144 60 57.4644 60Z" fill="white"/>
</g>
</svg>
