<svg width="181" height="220" viewBox="0 0 181 220" fill="none" xmlns="http://www.w3.org/2000/svg">
<path id="Vector" d="M0.666016 110.667C0.666016 215.067 0.799349 220.667 3.06602 219.467C4.26602 218.8 12.666 210.8 21.7327 201.6L37.9994 185.067V158.267V131.333H59.3327H80.666V166C80.666 185.067 81.066 200.667 81.7327 200.667C82.266 200.667 91.1994 192.133 101.733 181.6L120.666 162.667V147.867C120.666 137.6 121.199 132.533 122.399 131.6C123.199 130.933 127.599 129.333 131.999 128C149.999 122.933 162.799 114 171.199 100.933C182.933 82.3999 184.266 56.4 174.399 35.4666C167.199 20.2666 146.933 5.33328 128.799 1.99995C124.666 1.19995 95.7327 0.666615 61.1994 0.666615H0.666016V110.667ZM137.066 15.1999C156.933 23.0666 169.199 40.6666 170.933 63.3333C171.733 74.1333 168.533 85.0666 161.466 95.7333C152.799 108.8 140.533 116.933 126.933 118.8L120.666 119.733V72.9333C120.666 38.5333 120.266 25.8666 119.066 25.1999C117.199 23.9999 85.3327 56.9333 82.5327 62.9333C81.066 66.2666 80.666 73.4666 80.666 93.1999C80.666 107.467 80.266 119.333 79.7327 119.6C79.066 119.867 69.466 119.867 58.3994 119.6L37.9994 119.2V65.2V11.1999L83.7327 11.5999C127.733 11.9999 129.599 12.1333 137.066 15.1999Z" fill="white"/>
</svg>
