<svg width="186" height="217" viewBox="0 0 186 217" fill="none" xmlns="http://www.w3.org/2000/svg">
<g id="Group">
<path id="Vector" d="M36 53.9333C36 83.4 36.4 107 36.8 106.6C37.3333 106.2 37.7333 83.2666 37.8667 55.6666C38 12.7333 38.2667 5.39996 40 4.19996C41.7333 3.13329 91.7333 3.26663 126.267 4.59996C131.467 4.86663 135.6 4.7333 135.333 4.46663C135.067 4.19996 131.333 3.13329 127.067 2.19996C121.467 0.866631 108.133 0.333298 77.7333 0.333298H36V53.9333Z" fill="white"/>
<path id="Vector_2" d="M118.667 60.2C118.667 88.2 119.2 107.133 119.867 107.667C123.334 109.667 124 101.667 124 61.8C124 38.2 123.467 19 122.667 17.1333C119.334 8.06665 118.667 14.7333 118.667 60.2Z" fill="white"/>
<path id="Vector_3" d="M170 20.0667C173.866 25.5334 178.266 39.2667 179.066 48.2C180.133 58.3334 177.466 73.6667 173.2 82.6C168.266 92.8667 157.066 105.267 148.4 109.933C144.933 111.8 137.6 114.733 132.266 116.333C126.933 117.933 121.733 120.2 120.666 121.267C119.2 122.733 118.666 126.733 118.666 137.4V151.667L99.0664 171.267C80.2664 190.067 79.5997 191 81.0664 194.333C82.3997 197.133 83.0664 197.533 85.0664 196.467C88.1331 194.867 120.8 161 122.666 157.667C123.333 156.333 124 149.267 124 141.933C124 126.2 123.733 126.6 140 121.267C154.266 116.467 164.266 109.8 172.266 99.4C180.133 88.8667 184 78.6 184.933 64.8667C186.133 47.6667 182.133 32.4667 172.933 20.0667C168.8 14.4667 166.133 14.3334 170 20.0667Z" fill="white"/>
<path id="Vector_4" d="M36 147.267V174.067L18 192.333C5.86667 204.6 0 211.4 0 213.4C0 215 0.8 216.333 1.73333 216.333C2.66667 216.333 11.2 208.467 20.6667 199L38 181.667L38.2667 154.867C38.4 140.2 38.8 127.267 39.2 126.2C39.7333 124.733 43.6 124.333 59.3333 124.333C75.6 124.333 78.6667 124.067 78.6667 122.333C78.6667 120.6 75.4667 120.333 57.3333 120.333H36V147.267Z" fill="white"/>
</g>
</svg>
