<svg width="70" height="70" viewBox="0 0 100 75" fill="none" xmlns="http://www.w3.org/2000/svg">
<path id="Vector" d="M93.75 75C93.75 75 100 75 100 68.75C100 62.5 93.75 43.75 68.75 43.75C43.75 43.75 37.5 62.5 37.5 68.75C37.5 75 43.75 75 43.75 75H93.75ZM43.8875 68.75C43.8413 68.7436 43.7955 68.7353 43.75 68.725C43.7563 67.075 44.7938 62.2875 48.5 57.975C51.95 53.9312 58.0125 50 68.75 50C79.4812 50 85.5438 53.9375 89 57.975C92.7062 62.2875 93.7375 67.0812 93.75 68.725L93.7 68.7375C93.6709 68.7424 93.6418 68.7466 93.6125 68.75H43.8875ZM68.75 31.25C72.0652 31.25 75.2446 29.933 77.5888 27.5888C79.933 25.2446 81.25 22.0652 81.25 18.75C81.25 15.4348 79.933 12.2554 77.5888 9.91116C75.2446 7.56696 72.0652 6.25 68.75 6.25C65.4348 6.25 62.2554 7.56696 59.9112 9.91116C57.567 12.2554 56.25 15.4348 56.25 18.75C56.25 22.0652 57.567 25.2446 59.9112 27.5888C62.2554 29.933 65.4348 31.25 68.75 31.25ZM87.5 18.75C87.5 21.2123 87.015 23.6505 86.0727 25.9253C85.1305 28.2002 83.7494 30.2672 82.0083 32.0083C80.2672 33.7493 78.2002 35.1305 75.9253 36.0727C73.6505 37.015 71.2123 37.5 68.75 37.5C66.2877 37.5 63.8495 37.015 61.5747 36.0727C59.2998 35.1305 57.2328 33.7493 55.4917 32.0083C53.7506 30.2672 52.3695 28.2002 51.4273 25.9253C50.485 23.6505 50 21.2123 50 18.75C50 13.7772 51.9754 9.00806 55.4917 5.49175C59.0081 1.97544 63.7772 0 68.75 0C73.7228 0 78.4919 1.97544 82.0083 5.49175C85.5246 9.00806 87.5 13.7772 87.5 18.75ZM43.35 45.5C40.8499 44.7127 38.2727 44.1952 35.6625 43.9562C34.1958 43.8168 32.7233 43.748 31.25 43.75C6.25 43.75 0 62.5 0 68.75C0 72.9187 2.08125 75 6.25 75H32.6C31.6735 73.0488 31.2114 70.9096 31.25 68.75C31.25 62.4375 33.6062 55.9875 38.0625 50.6C39.5812 48.7625 41.35 47.0437 43.35 45.5ZM30.75 50C27.051 55.5579 25.0528 62.0739 25 68.75H6.25C6.25 67.125 7.275 62.3125 11 57.975C14.4062 54 20.325 50.125 30.75 50.0063V50ZM9.375 21.875C9.375 16.9022 11.3504 12.1331 14.8667 8.61675C18.3831 5.10044 23.1522 3.125 28.125 3.125C33.0978 3.125 37.8669 5.10044 41.3833 8.61675C44.8996 12.1331 46.875 16.9022 46.875 21.875C46.875 26.8478 44.8996 31.6169 41.3833 35.1333C37.8669 38.6496 33.0978 40.625 28.125 40.625C23.1522 40.625 18.3831 38.6496 14.8667 35.1333C11.3504 31.6169 9.375 26.8478 9.375 21.875ZM28.125 9.375C24.8098 9.375 21.6304 10.692 19.2862 13.0362C16.942 15.3804 15.625 18.5598 15.625 21.875C15.625 25.1902 16.942 28.3696 19.2862 30.7138C21.6304 33.058 24.8098 34.375 28.125 34.375C31.4402 34.375 34.6196 33.058 36.9638 30.7138C39.308 28.3696 40.625 25.1902 40.625 21.875C40.625 18.5598 39.308 15.3804 36.9638 13.0362C34.6196 10.692 31.4402 9.375 28.125 9.375Z" fill="white"/>
</svg>
