<svg width="72" height="75" viewBox="0 0 72 75" fill="none" xmlns="http://www.w3.org/2000/svg">
<g id="Vector">
<path id="Vector_2" d="M0.904297 2.5C0.904297 1.83696 1.15258 1.20107 1.59453 0.732233C2.03647 0.263392 2.63588 0 3.26089 0H10.3307C10.8563 0.000154057 11.3669 0.186753 11.7811 0.530124C12.1952 0.873494 12.4893 1.35392 12.6166 1.895L14.5254 10H69.2454C69.5914 10.0003 69.9332 10.0815 70.2463 10.2378C70.5594 10.394 70.8362 10.6215 71.0571 10.904C71.278 11.1866 71.4376 11.5173 71.5244 11.8726C71.6112 12.2279 71.6233 12.5992 71.5596 12.96L64.4898 52.96C64.3887 53.5329 64.1021 54.0503 63.6796 54.4228C63.257 54.7953 62.725 54.9995 62.1756 55H19.757C19.2076 54.9995 18.6757 54.7953 18.2531 54.4228C17.8305 54.0503 17.5439 53.5329 17.4428 52.96L10.3778 13.035L8.49252 5H3.26089C2.63588 5 2.03647 4.73661 1.59453 4.26777C1.15258 3.79893 0.904297 3.16304 0.904297 2.5ZM24.4702 55C21.9702 55 19.5725 56.0536 17.8048 57.9289C16.037 59.8043 15.0438 62.3478 15.0438 65C15.0438 67.6522 16.037 70.1957 17.8048 72.0711C19.5725 73.9464 21.9702 75 24.4702 75C26.9702 75 29.3679 73.9464 31.1356 72.0711C32.9034 70.1957 33.8966 67.6522 33.8966 65C33.8966 62.3478 32.9034 59.8043 31.1356 57.9289C29.3679 56.0536 26.9702 55 24.4702 55ZM57.4625 55C54.9624 55 52.5648 56.0536 50.797 57.9289C49.0292 59.8043 48.0361 62.3478 48.0361 65C48.0361 67.6522 49.0292 70.1957 50.797 72.0711C52.5648 73.9464 54.9624 75 57.4625 75C59.9625 75 62.3601 73.9464 64.1279 72.0711C65.8957 70.1957 66.8888 67.6522 66.8888 65C66.8888 62.3478 65.8957 59.8043 64.1279 57.9289C62.3601 56.0536 59.9625 55 57.4625 55ZM24.4702 60C25.7202 60 26.919 60.5268 27.8029 61.4645C28.6868 62.4021 29.1834 63.6739 29.1834 65C29.1834 66.3261 28.6868 67.5978 27.8029 68.5355C26.919 69.4732 25.7202 70 24.4702 70C23.2202 70 22.0214 69.4732 21.1375 68.5355C20.2536 67.5978 19.757 66.3261 19.757 65C19.757 63.6739 20.2536 62.4021 21.1375 61.4645C22.0214 60.5268 23.2202 60 24.4702 60ZM57.4625 60C58.7125 60 59.9113 60.5268 60.7952 61.4645C61.6791 62.4021 62.1756 63.6739 62.1756 65C62.1756 66.3261 61.6791 67.5978 60.7952 68.5355C59.9113 69.4732 58.7125 70 57.4625 70C56.2125 70 55.0136 69.4732 54.1297 68.5355C53.2459 67.5978 52.7493 66.3261 52.7493 65C52.7493 63.6739 53.2459 62.4021 54.1297 61.4645C55.0136 60.5268 56.2125 60 57.4625 60Z" fill="white" fill-opacity="0.57"/>
</g>
</svg>
